<?xml version="1.0" encoding="UTF-8"?>
<svg xmlns="http://www.w3.org/2000/svg" xmlns:xlink="http://www.w3.org/1999/xlink" width="110px" height="110px" viewBox="0 0 110 110" version="1.1">
<g id="surface1">
<path style=" stroke:none;fill-rule:nonzero;fill:rgb(0%,0%,0%);fill-opacity:1;" d="M 55 0 C 24.671875 0 0 24.671875 0 55 C 0 85.328125 24.671875 110 55 110 C 85.328125 110 110 85.328125 110 55 C 110 24.671875 85.328125 0 55 0 Z M 55 96.667969 C 32.023438 96.667969 13.332031 77.976562 13.332031 55 C 13.332031 32.023438 32.023438 13.332031 55 13.332031 C 77.976562 13.332031 96.667969 32.023438 96.667969 55 C 96.667969 77.976562 77.976562 96.667969 55 96.667969 Z M 63.230469 26.5625 L 63.230469 59.691406 C 63.230469 63.371094 60.242188 66.355469 56.5625 66.355469 L 33.4375 66.355469 C 29.757812 66.355469 26.769531 63.371094 26.769531 59.691406 C 26.769531 56.011719 29.757812 53.023438 33.4375 53.023438 L 49.898438 53.023438 L 49.898438 26.5625 C 49.898438 22.882812 52.882812 19.898438 56.5625 19.898438 C 60.242188 19.898438 63.230469 22.875 63.230469 26.5625 Z M 63.230469 26.5625 "/>
</g>
</svg>
