<?xml version="1.0" encoding="UTF-8"?>
<svg xmlns="http://www.w3.org/2000/svg" xmlns:xlink="http://www.w3.org/1999/xlink" width="8px" height="8px" viewBox="0 0 8 8" version="1.1">
<g id="surface1">
<path style=" stroke:none;fill-rule:nonzero;fill:rgb(0%,0%,0%);fill-opacity:1;" d="M 4.949219 4 L 7.921875 1.027344 C 8.027344 0.921875 8.027344 0.753906 7.921875 0.648438 L 7.351562 0.078125 C 7.300781 0.0273438 7.234375 0 7.164062 0 C 7.089844 0 7.023438 0.0273438 6.972656 0.078125 L 4 3.050781 L 1.027344 0.078125 C 0.976562 0.0273438 0.910156 0 0.835938 0 C 0.765625 0 0.699219 0.0273438 0.648438 0.078125 L 0.078125 0.648438 C -0.0273438 0.753906 -0.0273438 0.921875 0.078125 1.027344 L 3.050781 4 L 0.078125 6.972656 C -0.0273438 7.078125 -0.0273438 7.246094 0.078125 7.351562 L 0.648438 7.921875 C 0.699219 7.972656 0.765625 8 0.839844 8 C 0.910156 8 0.976562 7.972656 1.027344 7.921875 L 4 4.949219 L 6.972656 7.921875 C 7.023438 7.972656 7.089844 8 7.160156 8 C 7.234375 8 7.300781 7.972656 7.351562 7.921875 L 7.921875 7.351562 C 8.027344 7.246094 8.027344 7.078125 7.921875 6.972656 Z M 4.949219 4 "/>
</g>
</svg>
