<?xml version="1.0" encoding="UTF-8"?>
<svg xmlns="http://www.w3.org/2000/svg" xmlns:xlink="http://www.w3.org/1999/xlink" width="40px" height="40px" viewBox="0 0 40 40" version="1.1">
<g id="surface1">
<path style=" stroke:none;fill-rule:nonzero;fill:rgb(0%,0%,0%);fill-opacity:1;" d="M 20 0 C 8.972656 0 0 8.972656 0 20 C 0 31.027344 8.972656 40 20 40 C 31.027344 40 40 31.027344 40 20 C 40 8.972656 31.027344 0 20 0 Z M 20 35.152344 C 11.644531 35.152344 4.847656 28.355469 4.847656 20 C 4.847656 11.644531 11.644531 4.847656 20 4.847656 C 28.355469 4.847656 35.152344 11.644531 35.152344 20 C 35.152344 28.355469 28.355469 35.152344 20 35.152344 Z M 22.992188 9.660156 L 22.992188 21.707031 C 22.992188 23.042969 21.90625 24.128906 20.566406 24.128906 L 12.160156 24.128906 C 10.820312 24.128906 9.734375 23.042969 9.734375 21.707031 C 9.734375 20.367188 10.820312 19.28125 12.160156 19.28125 L 18.144531 19.28125 L 18.144531 9.660156 C 18.144531 8.320312 19.230469 7.234375 20.566406 7.234375 C 21.90625 7.234375 22.992188 8.316406 22.992188 9.660156 Z M 22.992188 9.660156 "/>
</g>
</svg>
