<?xml version="1.0" encoding="UTF-8"?>
<svg xmlns="http://www.w3.org/2000/svg" xmlns:xlink="http://www.w3.org/1999/xlink" width="32px" height="32px" viewBox="0 0 32 32" version="1.1">
<g id="surface1">
<path style=" stroke:none;fill-rule:nonzero;fill:rgb(0%,0%,0%);fill-opacity:1;" d="M 22.542969 3.476562 C 22.933594 2.800781 23.796875 2.570312 24.46875 2.957031 C 27.3125 4.597656 29.414062 7.023438 30.667969 9.804688 C 31.574219 11.804688 32.003906 13.917969 32.003906 16.007812 C 32.003906 18.089844 31.574219 20.191406 30.675781 22.183594 C 29.421875 24.964844 27.316406 27.398438 24.46875 29.042969 C 23.796875 29.429688 22.933594 29.199219 22.542969 28.523438 C 22.152344 27.847656 22.382812 26.984375 23.058594 26.597656 C 24.964844 25.496094 26.464844 23.957031 27.5 22.183594 C 27.511719 22.160156 27.523438 22.140625 27.539062 22.117188 C 27.746094 21.757812 27.933594 21.390625 28.101562 21.019531 C 28.804688 19.449219 29.175781 17.738281 29.179688 16.011719 C 29.179688 14.269531 28.804688 12.546875 28.09375 10.964844 C 27.925781 10.597656 27.742188 10.238281 27.539062 9.882812 C 27.523438 9.859375 27.511719 9.839844 27.503906 9.816406 C 26.464844 8.042969 24.964844 6.503906 23.058594 5.402344 C 22.382812 5.015625 22.152344 4.152344 22.542969 3.476562 Z M 10.351562 29.175781 L 0 29.175781 L 0 2.824219 L 7.816406 2.847656 C 10.339844 2.855469 12.550781 4.539062 13.234375 6.972656 L 15.957031 16.6875 C 16.125 17.285156 15.679688 17.878906 15.050781 17.882812 L 14.117188 17.882812 L 14.117188 21.648438 C 14.117188 22.683594 13.277344 23.527344 12.234375 23.53125 L 10.351562 23.53125 Z M 21.648438 7.847656 C 20.972656 7.460938 20.109375 7.691406 19.71875 8.367188 C 19.328125 9.042969 19.558594 9.90625 20.234375 10.292969 C 21.257812 10.886719 22.0625 11.710938 22.621094 12.660156 C 22.628906 12.675781 22.636719 12.691406 22.648438 12.707031 C 22.757812 12.898438 22.859375 13.09375 22.945312 13.289062 C 23.328125 14.140625 23.53125 15.066406 23.53125 16.003906 C 23.527344 16.933594 23.328125 17.859375 22.949219 18.707031 C 22.859375 18.902344 22.757812 19.101562 22.648438 19.292969 C 22.636719 19.308594 22.628906 19.324219 22.621094 19.339844 C 22.0625 20.289062 21.257812 21.113281 20.234375 21.707031 C 19.558594 22.09375 19.328125 22.957031 19.71875 23.632812 C 20.109375 24.308594 20.972656 24.539062 21.648438 24.152344 C 23.425781 23.125 24.742188 21.605469 25.523438 19.867188 C 26.085938 18.621094 26.355469 17.304688 26.355469 16.003906 C 26.355469 14.699219 26.085938 13.378906 25.519531 12.128906 C 24.738281 10.390625 23.421875 8.875 21.648438 7.847656 Z M 18.824219 12.738281 C 18.148438 12.351562 17.285156 12.582031 16.894531 13.257812 C 16.503906 13.933594 16.738281 14.796875 17.410156 15.183594 C 17.554688 15.269531 17.667969 15.382812 17.75 15.515625 C 17.75 15.519531 17.753906 15.527344 17.757812 15.53125 C 17.773438 15.554688 17.785156 15.582031 17.796875 15.613281 C 17.855469 15.734375 17.882812 15.867188 17.882812 16.003906 C 17.882812 16.132812 17.855469 16.265625 17.800781 16.382812 C 17.789062 16.414062 17.773438 16.441406 17.757812 16.46875 C 17.753906 16.476562 17.75 16.480469 17.75 16.484375 C 17.667969 16.617188 17.554688 16.730469 17.410156 16.816406 C 16.738281 17.203125 16.503906 18.066406 16.894531 18.742188 C 17.285156 19.417969 18.148438 19.648438 18.824219 19.261719 C 19.535156 18.847656 20.0625 18.242188 20.375 17.542969 C 20.597656 17.046875 20.707031 16.523438 20.707031 16.003906 C 20.707031 15.480469 20.597656 14.953125 20.371094 14.449219 C 20.058594 13.757812 19.535156 13.148438 18.824219 12.738281 Z M 10.351562 10.351562 C 10.351562 9.3125 9.511719 8.46875 8.46875 8.46875 C 7.429688 8.46875 6.589844 9.3125 6.589844 10.351562 C 6.589844 11.390625 7.429688 12.234375 8.46875 12.234375 C 9.511719 12.234375 10.351562 11.390625 10.351562 10.351562 Z M 10.351562 10.351562 "/>
</g>
</svg>
