<?xml version="1.0" encoding="UTF-8"?>
<svg xmlns="http://www.w3.org/2000/svg" xmlns:xlink="http://www.w3.org/1999/xlink" width="48px" height="48px" viewBox="0 0 48 48" version="1.1">
<g id="surface1">
<path style=" stroke:none;fill-rule:nonzero;fill:rgb(0%,0%,0%);fill-opacity:1;" d="M 31.996094 24 C 31.996094 24.683594 31.933594 25.355469 31.800781 25.996094 L 29.230469 25.996094 L 29.433594 25.003906 L 27 25.003906 L 27 22.996094 L 29.433594 22.996094 C 28.988281 19.660156 26.34375 17.011719 22.996094 16.566406 L 22.996094 19.003906 L 21 19.003906 L 21 16.566406 C 17.660156 17.011719 15.011719 19.660156 14.566406 22.996094 L 16.996094 22.996094 L 16.996094 25.003906 L 14.566406 25.003906 C 15.011719 28.339844 17.660156 30.988281 21 31.433594 L 21 28.996094 L 22.996094 28.996094 L 22.996094 31.433594 L 24 31.230469 L 24 33.800781 C 23.355469 33.933594 22.6875 34.003906 22.003906 34.003906 C 16.476562 34.003906 12 29.527344 12 24 C 12 18.816406 15.949219 14.550781 21 14.050781 L 21 13.003906 L 18 13.003906 L 18 10.003906 L 25.996094 10.003906 L 25.996094 13.003906 L 22.996094 13.003906 L 22.996094 14.050781 C 25.011719 14.25 26.847656 15.046875 28.332031 16.261719 L 29.050781 15.535156 L 27.636719 14.121094 L 29.761719 12 L 34.003906 16.242188 L 31.878906 18.363281 L 30.464844 16.949219 L 29.742188 17.671875 C 31.152344 19.394531 31.996094 21.597656 31.996094 24 Z M 22.003906 22.003906 C 23.105469 22.003906 24 22.894531 24 24 C 24 25.105469 23.105469 25.996094 22.003906 25.996094 L 18 28.996094 L 19.996094 24 C 19.996094 22.894531 20.894531 22.003906 22.003906 22.003906 Z M 25.996094 28.003906 L 28.996094 28.003906 L 28.996094 37.003906 L 25.996094 37.003906 Z M 34.996094 28.003906 L 34.996094 37.003906 L 31.996094 37.003906 L 31.996094 28.003906 Z M 34.996094 28.003906 "/>
</g>
</svg>
